<?xml version="1.0" standalone="no"?>
<!DOCTYPE svg PUBLIC "-//W3C//DTD SVG 20010904//EN"
 "http://www.w3.org/TR/2001/REC-SVG-20010904/DTD/svg10.dtd">
<svg version="1.0" xmlns="http://www.w3.org/2000/svg"
 width="1520.000000pt" height="1520.000000pt" viewBox="0 0 1520.000000 1520.000000"
 preserveAspectRatio="xMidYMid meet">
<metadata>
Created by potrace 1.11, written by Peter Selinger 2001-2013
</metadata>
<g transform="translate(0.000000,1520.000000) scale(0.100000,-0.100000)"
fill="#000000" stroke="none">
<path d="M9318 15195 c-1 -2 -61 -6 -133 -10 -333 -17 -493 -26 -575 -30 -36
-2 -110 -6 -165 -9 -55 -3 -147 -8 -205 -11 -58 -4 -145 -8 -195 -10 -49 -2
-90 -4 -90 -5 0 -1 -34 -3 -75 -5 -41 -2 -122 -6 -180 -9 -58 -4 -145 -9 -195
-11 -49 -2 -130 -7 -180 -10 -49 -3 -139 -7 -200 -10 -60 -3 -137 -7 -170 -10
-113 -7 -330 -18 -372 -19 -24 0 -43 -4 -43 -8 0 -5 -8 -4 -19 1 -10 6 -21 8
-23 5 -5 -4 -92 -10 -283 -19 -55 -2 -145 -6 -200 -10 -55 -3 -138 -7 -185
-10 -47 -3 -130 -7 -185 -10 -55 -3 -134 -7 -175 -10 -41 -2 -131 -7 -200 -11
-137 -7 -182 -11 -190 -14 -3 -1 -9 -1 -15 0 -14 3 -75 2 -165 -4 -102 -7
-254 -15 -380 -21 -124 -6 -166 -12 -189 -25 -9 -5 -13 -10 -9 -10 4 0 1 -12
-7 -26 -7 -14 -11 -38 -8 -53 2 -14 6 -51 9 -81 2 -30 6 -80 8 -110 3 -30 7
-82 10 -114 3 -32 8 -86 11 -120 4 -34 8 -86 9 -117 2 -31 6 -61 8 -65 3 -5 6
-29 6 -54 0 -25 3 -67 6 -95 5 -47 13 -129 21 -235 2 -25 6 -70 9 -100 3 -30
8 -82 11 -115 2 -33 7 -82 11 -110 3 -27 7 -75 9 -105 4 -60 9 -114 20 -230
12 -132 14 -154 20 -230 3 -41 7 -94 10 -117 8 -67 14 -140 20 -233 4 -47 8
-96 11 -110 2 -14 6 -56 9 -95 3 -38 7 -88 10 -110 3 -22 7 -74 10 -115 3 -41
8 -93 10 -115 2 -22 7 -71 10 -110 3 -38 7 -88 10 -110 7 -61 16 -153 20 -220
2 -33 6 -76 9 -95 7 -62 18 -194 20 -242 0 -27 3 -48 6 -48 3 0 6 -28 8 -63 3
-67 6 -109 27 -327 3 -30 7 -85 10 -121 2 -36 7 -83 10 -105 2 -21 7 -70 10
-109 2 -38 7 -90 10 -115 4 -25 8 -76 10 -115 6 -88 13 -168 19 -220 3 -22 8
-74 11 -115 3 -41 8 -91 10 -110 2 -19 7 -69 10 -110 10 -122 13 -162 20 -225
3 -33 8 -85 10 -115 3 -30 7 -79 10 -107 3 -29 7 -77 9 -105 5 -64 17 -190 22
-238 2 -19 6 -66 9 -105 3 -38 8 -95 11 -125 3 -30 8 -75 10 -100 4 -57 13
-164 18 -210 2 -19 7 -73 10 -120 4 -47 8 -99 11 -116 7 -57 18 -189 19 -236
0 -27 3 -48 6 -48 3 0 6 -21 7 -48 1 -44 5 -93 18 -232 3 -30 8 -80 11 -110 3
-30 7 -75 9 -100 3 -25 7 -79 10 -120 3 -41 7 -93 10 -115 3 -22 7 -69 10
-105 3 -36 7 -83 10 -105 2 -22 7 -76 11 -120 3 -44 8 -93 9 -110 4 -32 13
-143 19 -215 9 -114 18 -208 22 -240 2 -19 6 -64 9 -100 3 -36 7 -89 10 -119
3 -30 8 -84 11 -120 2 -36 7 -88 10 -116 3 -27 7 -66 9 -85 13 -169 17 -212
23 -260 4 -30 7 -83 7 -117 0 -35 3 -63 6 -63 3 0 6 -21 8 -47 2 -55 7 -112
16 -198 3 -33 8 -82 10 -110 2 -27 6 -70 9 -95 5 -48 15 -163 21 -245 3 -27 7
-77 10 -110 3 -33 8 -82 10 -109 2 -27 7 -74 10 -105 3 -31 8 -81 10 -111 5
-57 12 -138 20 -225 2 -27 7 -79 10 -115 3 -36 8 -87 10 -115 3 -27 8 -77 11
-110 11 -147 14 -172 19 -220 2 -27 7 -81 11 -120 3 -38 7 -90 9 -115 2 -25 7
-70 10 -100 3 -30 7 -84 10 -120 2 -36 5 -65 6 -65 0 0 2 -16 4 -35 3 -37 13
-153 21 -235 3 -27 7 -77 9 -110 3 -33 8 -85 10 -115 3 -30 8 -77 10 -105 2
-27 7 -72 9 -100 3 -27 8 -84 11 -125 3 -41 8 -93 10 -115 3 -22 7 -69 9 -105
3 -36 7 -81 10 -100 3 -19 8 -71 11 -115 7 -90 12 -154 20 -235 3 -30 8 -80
10 -110 3 -30 7 -81 10 -112 3 -31 8 -81 10 -110 13 -146 16 -177 20 -223 3
-27 7 -77 10 -110 2 -33 7 -82 10 -110 3 -27 8 -79 10 -115 3 -36 8 -92 11
-125 3 -33 7 -80 9 -105 2 -25 4 -45 5 -45 2 0 12 -121 11 -143 l-1 -24 848 5
c466 3 870 7 897 10 48 4 254 16 380 22 33 2 110 6 170 10 61 3 155 8 210 11
55 3 132 7 170 9 39 2 121 6 184 9 75 4 118 10 123 19 4 6 8 8 8 2 2 -24 32
64 35 100 1 22 4 40 5 40 1 0 3 9 4 20 5 36 20 140 21 145 1 3 5 34 9 70 8 65
11 84 21 130 3 14 7 43 10 65 5 41 23 171 30 214 2 13 7 45 11 70 4 25 8 53 9
61 3 14 9 56 20 130 2 19 6 44 9 55 4 22 17 106 21 145 3 30 14 97 20 130 2
13 7 46 10 74 3 28 8 60 10 71 6 26 16 92 20 130 2 17 6 44 9 60 3 17 8 50 12
75 3 25 7 52 9 60 3 8 7 38 10 65 3 28 8 61 10 75 6 31 12 71 20 130 4 25 9
61 12 80 3 19 7 46 8 60 1 14 3 25 4 25 4 0 14 78 15 112 1 18 3 33 7 33 3 0
5 10 5 23 1 12 4 38 7 57 3 19 9 58 13 85 3 28 8 59 10 70 7 33 12 67 18 115
3 25 8 54 10 65 2 11 7 43 10 70 9 68 15 104 33 215 16 105 21 136 28 195 2
22 7 51 10 65 3 14 7 43 10 65 2 22 6 51 9 65 2 14 7 43 10 65 3 22 8 51 10
65 3 14 7 45 10 70 3 25 8 56 11 70 3 14 8 43 10 64 4 35 11 84 21 141 3 19 6
38 20 135 3 25 8 56 11 70 2 14 6 41 8 60 4 33 14 95 20 131 2 9 6 40 10 69 4
29 8 60 10 69 1 9 8 52 15 96 6 44 14 94 16 110 6 34 10 60 19 130 3 28 8 57
10 65 3 8 7 35 10 60 3 25 7 54 9 65 2 11 7 45 11 75 4 30 9 64 11 75 5 25 16
94 19 120 1 11 3 20 4 20 2 0 13 96 14 128 1 9 4 17 7 17 3 0 6 15 7 33 1 34
9 94 17 137 6 27 14 83 21 140 2 19 7 51 10 70 9 50 18 104 30 190 4 30 9 64
11 75 2 11 7 40 10 65 3 25 7 54 8 65 2 11 6 40 10 65 18 108 27 174 31 210 1
14 3 25 4 25 1 0 4 14 6 30 4 34 14 100 20 136 2 13 7 47 10 74 10 68 12 84
20 125 9 53 13 80 20 140 4 30 8 57 10 60 2 3 6 37 10 75 4 39 9 73 11 76 2 4
6 28 9 55 3 27 8 61 11 76 3 15 7 39 9 55 2 15 6 42 9 58 5 36 20 136 21 150
1 6 5 30 9 55 4 25 9 56 11 70 2 14 6 43 10 65 3 22 7 54 10 70 2 17 6 46 9
65 3 19 13 85 22 145 9 61 18 119 20 130 2 11 6 40 10 65 3 25 9 70 14 100 5
30 12 75 15 100 8 56 16 107 20 130 2 10 6 40 10 67 4 26 9 59 11 73 2 14 7
44 10 66 2 23 6 50 8 60 2 11 7 44 11 74 4 30 9 64 11 75 2 10 6 37 9 60 4 22
8 51 10 65 2 14 13 88 25 165 11 77 23 151 25 165 2 14 7 48 10 75 4 28 11 69
16 92 5 24 8 46 7 50 -1 5 2 28 6 53 4 25 9 57 12 73 2 15 6 39 8 55 3 15 8
47 12 72 4 25 8 55 10 67 1 13 5 42 9 65 4 24 9 54 10 68 2 14 6 41 9 60 3 19
8 51 11 70 2 19 7 49 9 65 3 17 12 80 21 140 24 168 24 168 29 195 3 14 12 75
21 135 9 61 18 126 21 145 3 19 7 49 9 65 2 17 6 44 9 60 5 27 12 77 31 200 3
22 8 54 11 70 6 41 14 92 20 140 12 83 13 90 14 90 1 0 3 14 5 30 2 17 7 48
10 70 6 42 11 74 20 140 3 22 7 49 9 60 4 24 15 96 21 149 3 21 7 41 9 45 2 3
7 35 11 71 4 36 8 72 10 80 2 8 8 51 15 95 6 44 13 91 16 105 6 33 12 74 19
135 4 28 8 57 10 65 4 15 12 67 20 132 4 31 14 93 20 129 2 9 6 40 10 69 4 29
9 62 11 74 3 19 30 192 39 256 2 14 6 39 8 55 3 17 9 55 13 85 4 30 8 57 9 60
1 3 5 32 9 65 4 32 10 68 12 80 6 28 11 60 29 193 10 69 15 103 21 140 3 20 7
53 10 72 9 59 12 83 23 145 6 33 13 80 16 105 3 25 7 56 10 70 3 14 7 43 10
65 2 22 6 49 9 61 2 12 7 45 11 74 4 29 9 62 11 74 2 12 6 39 9 61 3 22 7 51
10 65 2 14 7 44 10 67 3 23 8 57 11 75 3 18 7 53 10 78 3 25 7 50 7 55 2 9
-1565 19 -1575 10z"/>
</g>
</svg>
